<svg xmlns="http://www.w3.org/2000/svg" xmlns:xlink="http://www.w3.org/1999/xlink" viewBox="0 0 56 56"><defs><style>.cls-1{fill:url(#未命名的渐变_13);}.cls-2{fill:#fff;}</style><linearGradient id="未命名的渐变_13" x1="28" y1="56" x2="28" y2="44" gradientUnits="userSpaceOnUse"><stop offset="0" stop-color="#fff"/><stop offset="1" stop-color="#9ecfff"/></linearGradient></defs><title>资源 2</title><g id="图层_2" data-name="图层 2"><g id="图层_1-2" data-name="图层 1"><path class="cls-1" d="M47,50H31V44H25v6H9a3,3,0,0,0,0,6H47a3,3,0,0,0,0-6Z"/><path class="cls-2" d="M50,0H6A6,6,0,0,0,0,6V38a6,6,0,0,0,6,6H50a6,6,0,0,0,6-6V6A6,6,0,0,0,50,0ZM45.19,17.21l-11.58,11a3,3,0,0,1-4.21-.08l-6.24-6.41-8,9.21a3,3,0,0,1-2.26,1,3,3,0,0,1-2.26-5L20.78,15.33a3,3,0,0,1,4.41-.12l6.44,6.62,9.43-9a3,3,0,1,1,4.13,4.35Z"/></g></g></svg>