<svg xmlns="http://www.w3.org/2000/svg" xmlns:xlink="http://www.w3.org/1999/xlink" viewBox="0 0 56 56"><defs><style>.cls-1{fill:url(#未命名的渐变_17);}.cls-2{fill:#fff;}</style><linearGradient id="未命名的渐变_17" x1="28" x2="28" y2="17.11" gradientUnits="userSpaceOnUse"><stop offset="0" stop-color="#fff"/><stop offset="0.17" stop-color="#f6fbff"/><stop offset="0.45" stop-color="#deefff"/><stop offset="0.81" stop-color="#b6dbff"/><stop offset="1" stop-color="#9ecfff"/></linearGradient></defs><title>资源 3</title><g id="图层_2" data-name="图层 2"><g id="图层_1-2" data-name="图层 1"><path class="cls-1" d="M38.49,8.15a2.3,2.3,0,1,1-2.84-2.84L32,1.62a4.85,4.85,0,0,0-.9-.74A5.7,5.7,0,0,0,24,1.66L8.54,17.11H47.45Z"/><path class="cls-2" d="M53,15.55H3a3,3,0,0,0-3,3v3.27a3,3,0,0,0,3,3h.08V50a6,6,0,0,0,6,6H46.88a6,6,0,0,0,6-6V24.88H53a3,3,0,0,0,3-3V18.58A3,3,0,0,0,53,15.55ZM38.12,37.23a3,3,0,0,1-2.12.88H20A3,3,0,0,1,17.88,33,3,3,0,0,1,20,32.11H36a3,3,0,0,1,2.12,5.12Z"/></g></g></svg>