<svg xmlns="http://www.w3.org/2000/svg" xmlns:xlink="http://www.w3.org/1999/xlink" viewBox="0 0 56 52"><defs><style>.cls-1{fill:#fff;}.cls-2{fill:url(#未命名的渐变_13);}.cls-3{fill:url(#未命名的渐变_13-2);}</style><linearGradient id="未命名的渐变_13" x1="11.5" y1="52" x2="11.5" y2="42" gradientUnits="userSpaceOnUse"><stop offset="0" stop-color="#fff"/><stop offset="1" stop-color="#9ecfff"/></linearGradient><linearGradient id="未命名的渐变_13-2" x1="45" y1="52" x2="45" xlink:href="#未命名的渐变_13"/></defs><title>资源 4</title><g id="图层_2" data-name="图层 2"><g id="图层_1-2" data-name="图层 1"><path class="cls-1" d="M50,0H6A6,6,0,0,0,0,6V36a6,6,0,0,0,6,6H50a6,6,0,0,0,6-6V6A6,6,0,0,0,50,0ZM28.79,30a4.36,4.36,0,0,1-3.07-1.27l0,0-.12-.19a4.2,4.2,0,0,1-.8-1.27L15.14,12l15.3,9.63a4.63,4.63,0,0,1,1.27.8l.19.12,0,0A4.35,4.35,0,0,1,28.79,30Z"/><path class="cls-2" d="M9,42h5a1,1,0,0,1,1,1v5.5A3.5,3.5,0,0,1,11.5,52h0A3.5,3.5,0,0,1,8,48.5V43a1,1,0,0,1,1-1Z"/><path class="cls-3" d="M42.5,42h5a.5.5,0,0,1,.5.5V49a3,3,0,0,1-3,3h0a3,3,0,0,1-3-3V42.5a.5.5,0,0,1,.5-.5Z"/></g></g></svg>